PathFileType	4	(X/Y/Z)	2014001\dynamic\2014001_C1_02.trc
DataRate	CameraRate	NumFrames	NumMarkers	Units	OrigDataRate	OrigDataStartFrame	OrigNumFrames
100.000000	100.000000	4	52	mm	100.000000	319	426
Frame#	Time	L_IAS			L_IPS			R_IPS			R_IAS			L_FTC			L_FLE			L_FME			L_FAX			L_TTC			L_FAL			L_TAM			L_FCC			L_FM1			L_FM2			L_FM5			R_FTC			R_FLE			R_FME			R_FAX			R_TTC			R_FAL			R_TAM			R_FCC			R_FM1			R_FM2			R_FM5			CV7			TV10			SXS			SJN			L_SIA			L_SRS			L_SAA			L_SAE			L_HLE			L_HME			L_UOA			L_RSP			L_UHE			L_HM2			L_HM5			R_SIA			R_SRS			R_SAA			R_SAE			R_HLE			R_HME			R_UOA			R_RSP			R_UHE			R_HM2			R_HM5			
		X1	Y1	Z1	X2	Y2	Z2	X3	Y3	Z3	X4	Y4	Z4	X5	Y5	Z5	X6	Y6	Z6	X7	Y7	Z7	X8	Y8	Z8	X9	Y9	Z9	X10	Y10	Z10	X11	Y11	Z11	X12	Y12	Z12	X13	Y13	Z13	X14	Y14	Z14	X15	Y15	Z15	X16	Y16	Z16	X17	Y17	Z17	X18	Y18	Z18	X19	Y19	Z19	X20	Y20	Z20	X21	Y21	Z21	X22	Y22	Z22	X23	Y23	Z23	X24	Y24	Z24	X25	Y25	Z25	X26	Y26	Z26	X27	Y27	Z27	X28	Y28	Z28	X29	Y29	Z29	X30	Y30	Z30	X31	Y31	Z31	X32	Y32	Z32	X33	Y33	Z33	X34	Y34	Z34	X35	Y35	Z35	X36	Y36	Z36	X37	Y37	Z37	X38	Y38	Z38	X39	Y39	Z39	X40	Y40	Z40	X41	Y41	Z41	X42	Y42	Z42	X43	Y43	Z43	X44	Y44	Z44	X45	Y45	Z45	X46	Y46	Z46	X47	Y47	Z47	X48	Y48	Z48	X49	Y49	Z49	X50	Y50	Z50	X51	Y51	Z51	X52	Y52	Z52	

320	3.19	350.4772033691407	881.171997070313	1165.97021484375	302.3770446777345	920.6538085937505	978.774780273438	213.5531158447267	916.0993652343755	960.9896850585942	111.5393981933594	875.8047485351567	1125.747314453125	418.7612915039065	797.9586791992192	1101.421752929688	369.9654541015626	442.4083557128909	1145.208129882813	252.472869873047	440.733825683594	1147.147583007813	373.2229309082032	378.2379150390626	1133.866577148438	315.3570251464845	368.9611816406251	1189.363891601563	316.7523193359376	61.06497573852542	1137.32421875	226.2511596679689	76.57733917236331	1153.43017578125	269.9720764160157	20.95380020141602	1093.281372070313	241.5596923828126	25.74070358276369	1272.746337890625	302.7917480468751	39.43087005615236	1282.532592773438	349.2200317382814	25.2262363433838	1228.47802734375	75.68521118164065	790.0964965820317	1009.967529296875	79.72271728515628	452.1007995605471	951.2826538085942	189.1261596679688	419.1935729980471	988.8588867187505	79.02787780761722	405.4252014160159	903.0138549804692	111.3967971801758	359.3762512207032	962.001586914063	130.9497680664063	158.6561737060547	703.4993896484377	205.3360595703126	147.9566040039063	755.9582519531252	195.345916748047	152.1008453369141	658.5417480468752	207.4427947998048	34.19985580444337	780.8563842773442	144.5208129882813	38.10157775878908	784.8632812500005	104.7220916748047	46.1407814025879	735.1323852539065	239.1393890380861	1379.405151367188	990.2280273437505	254.3271636962892	1143.133056640625	935.3165893554692	249.0065002441407	1156.878173828125	1168.05810546875	243.5563201904298	1317.39208984375	1118.050537109375	346.2420959472657	1184.716064453125	933.6811523437505	333.7764282226564	1317.212646484375	948.6577148437505	439.7789001464846	1319.660522460938	1029.651733398438	423.1667785644534	1330.616943359375	1069.180053710938	506.9328918457034	1046.216796875	1042.053466796875	434.3171691894534	1013.56640625	1007.896545410157	484.7895812988284	1009.351013183594	1008.693603515625	445.9466552734377	828.524536132813	1156.85107421875	517.4197998046877	816.8576660156255	1117.141845703125	448.5420532226565	753.5505981445315	1200.050048828125	516.347351074219	738.498474121094	1124.15673828125	135.0128784179688	1182.35791015625	927.699829101563	152.5000305175782	1308.457275390625	950.6828002929692	49.46773910522464	1302.118408203125	1031.629150390625	62.63044738769534	1307.51318359375	1079.820922851563	-4.246561527252199	1002.90283203125	1044.261352539063	71.24133300781253	987.2558593750005	1014.700134277344	25.23270988464357	978.4921264648442	1013.486755371094	35.98299407958986	803.8337402343755	1154.207641601563	-27.85254859924318	796.190063476563	1105.582153320313	24.12604331970216	716.3621215820315	1191.49462890625	-25.65291976928712	717.086364746094	1101.2724609375	
321	3.2	351.9381103515626	881.2854003906255	1170.400634765625	303.9296264648439	921.1887817382817	983.2829589843755	215.1165466308595	916.6916503906255	965.5354003906255	112.9490356445313	876.5461425781255	1130.160278320313	419.841979980469	797.959106445313	1105.619995117188	370.8001403808595	442.260192871094	1146.715698242188	253.323699951172	440.6929931640627	1148.747802734375	373.932586669922	378.1297912597657	1135.03125	316.1115112304689	368.6978759765626	1190.522827148438	316.7770996093751	61.00624465942386	1137.343383789063	226.2939605712892	76.6320495605469	1153.422485351563	269.9869384765626	20.94222831726075	1093.255249023438	241.5740966796876	25.69317436218263	1272.703979492188	302.7951049804689	39.45250320434572	1282.496948242188	349.2349853515626	25.23570632934572	1228.453369140625	77.02982330322268	790.574096679688	1014.505737304688	79.69232177734378	451.8504943847659	959.000610351563	189.0784301757813	418.7185363769534	996.9646606445317	79.15234375000003	405.5585021972659	910.6872558593755	111.2393493652344	359.0479125976564	969.3378295898442	132.1160430908204	161.9732208251954	708.3049926757815	206.2091369628907	150.3342285156251	760.8858032226565	196.9025115966798	156.5111236572266	663.5616455078127	208.1538848876954	35.55242919921876	782.8857421875005	145.0894470214844	38.98148727416994	786.167602539063	106.0375595092774	48.71424102783206	737.0384521484377	240.7265472412111	1380.015869140625	995.0377807617192	256.2139587402345	1143.78759765625	939.9993286132817	250.3487854003907	1157.40576171875	1172.805297851563	244.863983154297	1317.942504882813	1122.851196289063	348.2586669921876	1185.481201171875	938.724975585938	335.5712280273439	1317.9130859375	953.743774414063	441.3340148925784	1320.473022460938	1035.109252929688	424.5122680664065	1331.389038085938	1074.562133789063	508.9561157226565	1047.169189453125	1048.272094726563	436.4551696777346	1014.387268066407	1013.643676757813	486.9829711914065	1010.178466796875	1014.9541015625	448.5157470703127	829.496948242188	1163.321899414063	519.9473876953127	817.9634399414067	1123.733520507813	451.2328796386721	754.5659179687502	1206.7060546875	519.105651855469	739.6241455078127	1130.775634765625	136.8273620605469	1182.880859375	932.2156372070317	154.2603454589844	1308.992919921875	955.1912231445317	51.02329254150393	1302.541870117188	1035.841186523438	64.06449890136722	1307.981201171875	1084.076904296875	-2.50342607498169	1003.208557128907	1049.412719726563	73.26211547851565	987.3948364257817	1020.472961425782	27.19254302978517	978.4679565429692	1019.064453125	37.24920654296876	805.4396362304692	1161.93017578125	-26.13061141967775	797.0021362304692	1112.852905273438	25.26938629150392	718.3299560546877	1200.088134765625	-23.69177627563477	717.9216918945315	1109.416259765625	
322	3.21	353.4585571289064	881.399291992188	1174.640014648438	305.3961486816407	921.6658325195317	987.623657226563	216.5876464843751	917.231567382813	970.0105590820317	114.386833190918	877.3279418945317	1134.5556640625	420.9253234863284	797.8901977539067	1109.532836914063	371.6187133789064	442.1116943359377	1148.126708984375	254.1796264648439	440.651062011719	1150.379760742188	374.614227294922	378.0261840820314	1136.106323242188	316.902801513672	368.4338684082032	1191.639526367188	316.8033752441407	60.95570373535159	1137.342895507813	226.3693389892579	76.699333190918	1153.434448242188	269.9918212890626	20.94149780273438	1093.234130859375	241.5885620117189	25.66457939147951	1272.664672851563	302.8111877441407	39.46211624145509	1282.47021484375	349.2645568847657	25.23164367675783	1228.429809570313	78.26797485351565	791.032592773438	1019.076477050782	79.6711349487305	451.6020507812502	966.8012695312505	189.1106109619141	418.302917480469	1005.061645507813	79.2934494018555	405.6190490722659	918.4755249023442	111.157081604004	358.7666015625001	976.7712402343755	133.3688049316407	165.3624114990235	713.2399902343752	207.1893768310548	152.8240356445313	765.9063110351565	198.5203704833986	160.9766998291016	668.7076416015627	208.7974243164064	37.07643508911134	785.2355957031255	145.6803283691407	40.02378845214845	787.7476196289067	107.385726928711	51.51125335693362	739.1265869140627	242.2849578857423	1380.622924804688	999.7177734375005	258.0574951171876	1144.43896484375	944.5427246093755	251.6432342529298	1157.920532226563	1177.409545898438	246.120819091797	1318.486572265625	1127.523803710938	350.2692260742189	1186.263549804688	943.646362304688	337.3496398925782	1318.620361328125	958.7130737304692	442.8553771972659	1321.29541015625	1040.484741210938	425.807312011719	1332.16796875	1079.854370117188	510.8806762695315	1048.1181640625	1054.449829101563	438.4831848144534	1015.193176269532	1019.406066894532	489.0612487792971	1011.018981933594	1021.184448242188	451.0422363281252	830.4165039062505	1169.687255859375	522.4436645507815	819.057495117188	1130.226928710938	453.9161682128909	755.502136230469	1213.218017578125	521.864440917969	740.740417480469	1137.235961914063	138.6100006103516	1183.415649414063	936.579467773438	156.0074920654297	1309.510620117188	959.566528320313	52.54634475708011	1302.978393554688	1039.888427734375	65.45540618896487	1308.459106445313	1088.171264648438	-0.7877086400985722	1003.518493652344	1054.3427734375	75.25251770019534	987.5513305664067	1026.052612304688	29.1207847595215	978.4356079101567	1024.449462890625	38.49001312255861	807.2058715820317	1169.66015625	-24.40336799621583	797.8759155273442	1120.032836914063	26.37887001037599	720.4770507812502	1208.692993164063	-21.66672897338868	718.8169555664065	1117.562255859375	
323	3.22	355.0318298339845	881.5109863281255	1178.701782226563	306.7761840820314	922.084106445313	991.806518554688	217.9642333984376	917.7214965820317	974.403442382813	115.8519897460938	878.140258789063	1138.939331054688	422.0152893066409	797.7614135742192	1113.183837890625	372.4185180664064	441.9634094238284	1149.462524414063	255.0322418212892	440.6065979003909	1152.056640625	375.2668762207032	377.9278869628907	1137.1103515625	317.7233886718751	368.1676330566407	1192.728515625	316.8311767578126	60.91384124755862	1137.324096679688	226.4773864746095	76.77686309814456	1153.468994140625	269.9849243164064	20.95468139648438	1093.219848632813	241.5982208251954	25.65496253967287	1272.63037109375	302.8380126953126	39.45193481445314	1282.455810546875	349.3106689453126	25.21087646484376	1228.408935546875	79.39709472656253	791.4678344726567	1023.680541992188	79.6619567871094	451.3679809570315	974.646606445313	189.2192840576172	417.9407043457034	1013.127197265625	79.45335388183597	405.6282958984377	926.335327148438	111.1397171020508	358.5355224609376	984.273559570313	134.6924743652344	168.7973022460938	718.2981567382815	208.2564392089845	155.3921813964844	771.029663085938	200.1842346191407	165.4386749267579	673.9810180664065	209.3250579833986	38.7447853088379	787.9567871093755	146.253402709961	41.2254981994629	789.6638793945317	108.7180862426758	54.5130424499512	741.440124511719	243.8115844726564	1381.2197265625	1004.270385742188	259.8533630371095	1145.079467773438	948.9528808593755	252.8974914550782	1158.418701171875	1181.876098632813	247.3321075439454	1319.019287109375	1132.070556640625	352.2642517089845	1187.05224609375	948.4462890625005	339.1056213378907	1319.325561523438	963.563110351563	444.3424072265627	1322.121337890625	1045.765869140625	427.0556640625002	1332.9482421875	1085.045776367188	512.7146606445315	1049.058837890625	1060.56689453125	440.4134826660159	1015.974487304688	1025.173583984375	491.0349731445315	1011.8671875	1027.362915039063	453.5080871582034	831.2877807617192	1175.941528320313	524.9012451171877	820.1390991210942	1136.623901367188	456.5686035156252	756.3689575195315	1219.577880859375	524.612976074219	741.8472900390627	1143.549926757813	140.3598632812501	1183.951782226563	940.8005981445317	157.7366180419922	1310.004150390625	963.8168334960942	54.03773880004886	1303.419677734375	1043.786499023438	66.80652618408206	1308.937377929688	1092.117553710938	0.8864055871963505	1003.826477050782	1059.0576171875	77.18318939208987	987.7194824218755	1031.423095703125	30.99180412292482	978.392211914063	1029.636962890625	39.72607803344728	809.1196289062505	1177.365234375	-22.67147254943848	798.8110961914067	1127.119018554688	27.48493003845216	722.7981567382815	1217.281372070313	-19.58722305297852	719.772888183594	1125.706176757813	
